# xmcd CD database file
# Copyright (C) 1993-1998 Ti Kan
#
# Track frame offsets:
#	182
#	13225
#	24655
#	43160
#	58187
#	74487
#	83835
#	96442
#	108457
#	120752
#	135690
#
# Disc length: 1999 seconds
#
# Revision: 0
# Processed by: cddbd v1.4b41PL1 Copyright (c) Steve Scherf et al.
# Submitted via: CDmax 1.5
#
DISCID=9907cd0b
DTITLE=Glen Campbell - All-Time Greatest Hits [CD3 of 3)
DYEAR=1900
DGENRE=
TTITLE0=Honey Come Back
TTITLE1=Dreams Of The Everyday Housewife
TTITLE2=The Last Time I Saw Her
TTITLE3=Don't Pull Your Love - Then You Can Tell Me Goodbye
TTITLE4=See You On Sunday
TTITLE5=Let It Be Me (with Bobbie Gentry)
TTITLE6=Bonaparte's Retreat
TTITLE7=Wherefore And Why
TTITLE8=I Will Never Pass This Way Again
TTITLE9=God Must Have Blessed America
TTITLE10=Can You Fool
EXTD=
EXTT0=
EXTT1=
EXTT2=
EXTT3=
EXTT4=
EXTT5=
EXTT6=
EXTT7=
EXTT8=
EXTT9=
EXTT10=
PLAYORDER=
